<svg id="logo" xmlns="http://www.w3.org/2000/svg" width="100" height="100" viewBox="-20 -20 100 100">
  <path id="Path_301" data-name="Path 301" d="M44.7,38.516c0,.325-.1,1.414,1.716,1.631l2.23.238,2.839-2.828a9.921,9.921,0,0,0-4.186-.728c-1.961,0-2.6,1.034-2.6,1.687" transform="translate(-17.041 -14.041)" fill="#00365f"/>
  <path id="Path_302" data-name="Path 302" d="M19.908,25.127c0-6.47,5.247-9.68,10.494-9.68,3.813,0,6.975.556,9.453,2.675l2.425-2.417L34.515,3.312C31.75-1.1,27.223-1.1,24.457,3.312L1.245,40.364c-2.766,4.415-.766,8.027,4.443,8.027H9.471L24.883,33.037c-3.049-1.041-4.975-3.407-4.975-7.91" transform="translate(0 0)" fill="#00365f"/>
  <path id="Path_303" data-name="Path 303" d="M65.1,54.51,48.8,28.488l-9.078,9.043c4.918.874,7.069,4.368,7.069,8.789,0,6.906-5.3,9.9-11.426,9.9-3.733,0-7.381-.2-10.819-3.569L14.169,62.982h46.24c5.5,0,7.609-3.811,4.691-8.472" transform="translate(-5.402 -10.861)" fill="#4292c5"/>
  <path id="Path_304" data-name="Path 304" d="M48.751,56.588c0-.814-.342-1.685-1.913-1.849L42.769,54.3c-.062-.007-.121-.018-.183-.025l-2.69,2.68a8.553,8.553,0,0,0,5.422,1.533c1.177,0,3.433-.382,3.433-1.9" transform="translate(-15.211 -20.694)" fill="#4292c5"/>
  <path id="Path_305" data-name="Path 305" d="M46.111,36.188c-.283-.051-.572-.1-.874-.129l-1.841-.2-2.23-.238c-1.814-.218-1.716-1.306-1.716-1.631,0-.653.637-1.687,2.6-1.687a9.931,9.931,0,0,1,4.186.728l5.414-5.394c-2.477-2.118-5.639-2.674-9.453-2.674-5.247,0-10.494,3.209-10.494,9.679,0,4.5,1.927,6.869,4.975,7.91a12.156,12.156,0,0,0,2.492.548c.061.007.121.018.183.025l4.07.435c1.57.165,1.913,1.035,1.913,1.849,0,1.523-2.256,1.9-3.433,1.9a8.551,8.551,0,0,1-5.423-1.533l-5.544,5.523c3.438,3.367,7.086,3.568,10.82,3.568,6.13,0,11.425-2.991,11.425-9.9,0-4.42-2.151-7.915-7.069-8.789" transform="translate(-11.794 -9.518)" fill="#fff"/>
</svg>
